<mxfile host="app.diagrams.net" agent="Mozilla/5.0 (Windows NT 10.0; Win64; x64) AppleWebKit/537.36 (KHTML, like Gecko) Chrome/131.0.0.0 Safari/537.36" version="24.8.4">
  <diagram name="Page-1" id="eM9eSBMG-tRzvHiipupL">
    <mxGraphModel dx="653" dy="376" grid="1" gridSize="10" guides="1" tooltips="1" connect="1" arrows="1" fold="1" page="1" pageScale="1" pageWidth="827" pageHeight="1169" math="0" shadow="0">
      <root>
        <mxCell id="0" />
        <mxCell id="1" parent="0" />
        <mxCell id="ZMsd0Xr_cn_KEks0v0e5-4" style="edgeStyle=orthogonalEdgeStyle;rounded=0;orthogonalLoop=1;jettySize=auto;html=1;exitX=1;exitY=0.5;exitDx=0;exitDy=0;entryX=0;entryY=0.5;entryDx=0;entryDy=0;" edge="1" parent="1" source="ZMsd0Xr_cn_KEks0v0e5-1" target="ZMsd0Xr_cn_KEks0v0e5-2">
          <mxGeometry relative="1" as="geometry">
            <Array as="points">
              <mxPoint x="400" y="355" />
              <mxPoint x="400" y="380" />
              <mxPoint x="270" y="380" />
              <mxPoint x="270" y="405" />
            </Array>
          </mxGeometry>
        </mxCell>
        <mxCell id="ZMsd0Xr_cn_KEks0v0e5-1" value="[1, 0, 1]" style="rounded=0;whiteSpace=wrap;html=1;fillColor=#f8cecc;strokeColor=#b85450;" vertex="1" parent="1">
          <mxGeometry x="290" y="340" width="90" height="30" as="geometry" />
        </mxCell>
        <mxCell id="ZMsd0Xr_cn_KEks0v0e5-5" style="edgeStyle=orthogonalEdgeStyle;rounded=0;orthogonalLoop=1;jettySize=auto;html=1;exitX=1;exitY=0.5;exitDx=0;exitDy=0;entryX=0;entryY=0.5;entryDx=0;entryDy=0;" edge="1" parent="1" source="ZMsd0Xr_cn_KEks0v0e5-2" target="ZMsd0Xr_cn_KEks0v0e5-3">
          <mxGeometry relative="1" as="geometry">
            <Array as="points">
              <mxPoint x="400" y="405" />
              <mxPoint x="400" y="430" />
              <mxPoint x="270" y="430" />
              <mxPoint x="270" y="455" />
            </Array>
          </mxGeometry>
        </mxCell>
        <mxCell id="ZMsd0Xr_cn_KEks0v0e5-2" value="[0, 1, 0]&lt;span style=&quot;color: rgba(0, 0, 0, 0); font-family: monospace; font-size: 0px; text-align: start; text-wrap-mode: nowrap;&quot;&gt;%3CmxGraphModel%3E%3Croot%3E%3CmxCell%20id%3D%220%22%2F%3E%3CmxCell%20id%3D%221%22%20parent%3D%220%22%2F%3E%3CmxCell%20id%3D%222%22%20value%3D%221%2C%200%2C%201%22%20style%3D%22rounded%3D0%3BwhiteSpace%3Dwrap%3Bhtml%3D1%3B%22%20vertex%3D%221%22%20parent%3D%221%22%3E%3CmxGeometry%20x%3D%22290%22%20y%3D%22340%22%20width%3D%2290%22%20height%3D%2230%22%20as%3D%22geometry%22%2F%3E%3C%2FmxCell%3E%3C%2Froot%3E%3C%2FmxGraphModel%3E&lt;/span&gt;" style="rounded=0;whiteSpace=wrap;html=1;fillColor=#dae8fc;strokeColor=#6c8ebf;" vertex="1" parent="1">
          <mxGeometry x="290" y="390" width="90" height="30" as="geometry" />
        </mxCell>
        <mxCell id="ZMsd0Xr_cn_KEks0v0e5-3" value="[-1, -1, -1]" style="rounded=0;whiteSpace=wrap;html=1;fillColor=#fff2cc;strokeColor=#d6b656;" vertex="1" parent="1">
          <mxGeometry x="290" y="440" width="90" height="30" as="geometry" />
        </mxCell>
        <mxCell id="ZMsd0Xr_cn_KEks0v0e5-6" value="" style="html=1;shadow=0;dashed=0;align=center;verticalAlign=middle;shape=mxgraph.arrows2.arrow;dy=0.6;dx=40;notch=0;fillColor=#f5f5f5;strokeColor=#666666;fontColor=#333333;" vertex="1" parent="1">
          <mxGeometry x="420" y="370" width="60" height="60" as="geometry" />
        </mxCell>
        <mxCell id="ZMsd0Xr_cn_KEks0v0e5-8" value="(1, 0, 1, 0, 1, 0, -1, -1, -1)" style="rounded=0;whiteSpace=wrap;html=1;" vertex="1" parent="1">
          <mxGeometry x="500" y="385" width="150" height="30" as="geometry" />
        </mxCell>
        <mxCell id="ZMsd0Xr_cn_KEks0v0e5-9" value="" style="rounded=0;whiteSpace=wrap;html=1;fillColor=none;strokeColor=#d6b656;fillStyle=cross-hatch;gradientColor=none;" vertex="1" parent="1">
          <mxGeometry x="591" y="391" width="52" height="19" as="geometry" />
        </mxCell>
        <mxCell id="ZMsd0Xr_cn_KEks0v0e5-10" value="" style="rounded=0;whiteSpace=wrap;html=1;fillColor=none;strokeColor=#6c8ebf;" vertex="1" parent="1">
          <mxGeometry x="550" y="391" width="40" height="19" as="geometry" />
        </mxCell>
        <mxCell id="ZMsd0Xr_cn_KEks0v0e5-11" value="" style="rounded=0;whiteSpace=wrap;html=1;fillColor=none;strokeColor=#b85450;" vertex="1" parent="1">
          <mxGeometry x="507" y="391" width="42" height="19" as="geometry" />
        </mxCell>
        <mxCell id="ZMsd0Xr_cn_KEks0v0e5-12" value="Situasie op bord" style="text;html=1;align=center;verticalAlign=middle;whiteSpace=wrap;rounded=0;" vertex="1" parent="1">
          <mxGeometry x="305" y="300" width="60" height="30" as="geometry" />
        </mxCell>
        <mxCell id="ZMsd0Xr_cn_KEks0v0e5-13" value="key wat gegee word vir self.State_Table dictionary in AI class" style="text;html=1;align=center;verticalAlign=middle;whiteSpace=wrap;rounded=0;" vertex="1" parent="1">
          <mxGeometry x="485" y="340" width="170" height="30" as="geometry" />
        </mxCell>
        <mxCell id="ZMsd0Xr_cn_KEks0v0e5-14" value="1:mens" style="rounded=0;whiteSpace=wrap;html=1;" vertex="1" parent="1">
          <mxGeometry x="374" y="300" width="40" height="20" as="geometry" />
        </mxCell>
      </root>
    </mxGraphModel>
  </diagram>
</mxfile>
